<svg width="15" height="15" viewBox="0 0 15 15" fill="none" xmlns="http://www.w3.org/2000/svg">
<path fill-rule="evenodd" clip-rule="evenodd" d="M0 0H10.6674C11.8095 0 12.777 0.431954 13.506 1.1033C14.4552 1.97743 15 3.25738 15 4.51808C15 5.96255 14.4101 7.27577 13.506 8.17995C12.7321 8.95361 11.7284 9.42773 10.6674 9.42773H8.03782L13.506 15H8.24693L4.12347 10.8133L0.865394 14.1713L0 15V9.09634C0 7.34938 1.70319 5.66265 3.46606 5.66265L6.96436 5.38675L6.9553 5.36306L7.04094 5.41438C6.11866 6.51107 5.99392 6.96263 6.4413 7.48902C6.66146 5.97547 10.2133 2.61629 12.0349 3.28814L10.2133 3.91568L11.7085 3.74587L9.80344 5.03787L10.4031 6.73591L9.1053 5.73923L7.2611 7.48902L8.0351 5.41438C6.9955 6.49965 6.4413 8.53546 6.8588 8.72196C7.34656 8.93969 7.99183 8.62686 9.80344 7.18624L9.15075 6.83923L7.70884 7.91722L9.1053 6.53658L11.2683 7.66608L10.813 6.35938C12.456 4.60752 13.2863 3.66356 12.6344 2.8747C12.0349 2.39482 11.2571 2.5566 9.73518 3.28814L9.04465 1.41289L8.0351 4.02642L7.99907 4.03236L8.03564 4.01933L3.46606 3.73494C1.88247 3.73494 0 2.01807 0 0ZM9.39372 1.3686L9.73518 1.2431L10.1299 2.38743L9.73518 2.51293L9.39372 1.3686ZM9.93253 3.00759L9.99318 2.6606L10.3196 2.82302L9.93253 3.00759ZM10.0008 7.31923L9.92492 7.71789L10.3196 7.48902L10.0008 7.31923ZM11.7085 4.21098L10.4031 5.25196L10.5398 5.59896L11.7085 4.21098Z" fill="white"/>
</svg>
