<svg viewBox="0 0 122 122" fill="none" xmlns="http://www.w3.org/2000/svg">
<path d="M25.5307 119.454C-9.11045 74.3812 -5.18447 29.5418 25.5307 11.8139C45.3147 0.395007 84.7356 -4.69648 105.615 10.3026C118.935 19.871 125.118 37.9112 115.28 47.7499C99.5489 63.4828 50.587 50.5005 46.7024 58.4971C41.6028 68.9975 125.581 92.324 120.804 107.363C117.75 116.977 78.2184 123.867 64.8825 113.409C41.4578 95.0376 113.327 34.4687 92.7279 19.7064C80.0594 10.6284 34.4481 20.3294 23.9198 39.6895C8.70603 67.6608 72.2903 105.568 58.2088 118.446C52.6512 123.529 25.5307 119.454 25.5307 119.454Z" fill="black" stroke="black" stroke-miterlimit="10"/>
</svg>
