<svg width="922" height="209" viewBox="0 0 922 209" fill="none" xmlns="http://www.w3.org/2000/svg">
<path d="M203.5 149V79.1818H233.636C238.818 79.1818 243.352 80.125 247.239 82.0114C251.125 83.8977 254.148 86.6136 256.307 90.1591C258.466 93.7045 259.545 97.9545 259.545 102.909C259.545 107.909 258.432 112.125 256.205 115.557C254 118.989 250.898 121.58 246.898 123.33C242.92 125.08 238.273 125.955 232.955 125.955H214.955V111.227H229.136C231.364 111.227 233.261 110.955 234.83 110.409C236.42 109.841 237.636 108.943 238.477 107.716C239.341 106.489 239.773 104.886 239.773 102.909C239.773 100.909 239.341 99.2841 238.477 98.0341C237.636 96.7614 236.42 95.8295 234.83 95.2386C233.261 94.625 231.364 94.3182 229.136 94.3182H222.455V149H203.5ZM244.409 116.955L261.864 149H241.273L224.227 116.955H244.409ZM282.489 149.818C279.148 149.818 276.193 149.273 273.625 148.182C271.08 147.068 269.08 145.386 267.625 143.136C266.17 140.886 265.443 138.023 265.443 134.545C265.443 131.682 265.932 129.239 266.909 127.216C267.886 125.17 269.25 123.5 271 122.205C272.75 120.909 274.784 119.92 277.102 119.239C279.443 118.557 281.966 118.114 284.67 117.909C287.602 117.682 289.955 117.409 291.727 117.091C293.523 116.75 294.818 116.284 295.614 115.693C296.409 115.08 296.807 114.273 296.807 113.273V113.136C296.807 111.773 296.284 110.727 295.239 110C294.193 109.273 292.852 108.909 291.216 108.909C289.42 108.909 287.955 109.307 286.818 110.102C285.705 110.875 285.034 112.068 284.807 113.682H267.489C267.716 110.5 268.727 107.568 270.523 104.886C272.341 102.182 274.989 100.023 278.466 98.4091C281.943 96.7727 286.284 95.9545 291.489 95.9545C295.239 95.9545 298.602 96.3977 301.58 97.2841C304.557 98.1477 307.091 99.3636 309.182 100.932C311.273 102.477 312.864 104.295 313.955 106.386C315.068 108.455 315.625 110.705 315.625 113.136V149H298.034V141.636H297.625C296.58 143.591 295.307 145.17 293.807 146.375C292.33 147.58 290.636 148.455 288.727 149C286.841 149.545 284.761 149.818 282.489 149.818ZM288.625 137.955C290.057 137.955 291.398 137.659 292.648 137.068C293.92 136.477 294.955 135.625 295.75 134.511C296.545 133.398 296.943 132.045 296.943 130.455V126.091C296.443 126.295 295.909 126.489 295.341 126.67C294.795 126.852 294.205 127.023 293.568 127.182C292.955 127.341 292.295 127.489 291.591 127.625C290.909 127.761 290.193 127.886 289.443 128C287.989 128.227 286.795 128.602 285.864 129.125C284.955 129.625 284.273 130.25 283.818 131C283.386 131.727 283.17 132.545 283.17 133.455C283.17 134.909 283.682 136.023 284.705 136.795C285.727 137.568 287.034 137.955 288.625 137.955ZM324.616 149V96.6364H342.48V106.591H343.026C344.116 103.318 345.98 100.727 348.616 98.8182C351.253 96.9091 354.389 95.9545 358.026 95.9545C361.707 95.9545 364.878 96.9318 367.537 98.8864C370.196 100.818 371.798 103.386 372.344 106.591H372.889C373.776 103.386 375.662 100.818 378.548 98.8864C381.435 96.9318 384.821 95.9545 388.707 95.9545C393.73 95.9545 397.798 97.5682 400.912 100.795C404.048 104.023 405.616 108.318 405.616 113.682V149H386.798V118.455C386.798 116.159 386.219 114.364 385.06 113.068C383.901 111.75 382.344 111.091 380.389 111.091C378.457 111.091 376.923 111.75 375.787 113.068C374.673 114.364 374.116 116.159 374.116 118.455V149H356.116V118.455C356.116 116.159 355.537 114.364 354.378 113.068C353.219 111.75 351.662 111.091 349.707 111.091C348.412 111.091 347.298 111.386 346.366 111.977C345.435 112.568 344.707 113.42 344.185 114.534C343.685 115.625 343.435 116.932 343.435 118.455V149H324.616ZM440.125 149.955C434.443 149.955 429.58 148.83 425.534 146.58C421.489 144.307 418.386 141.148 416.227 137.102C414.068 133.034 412.989 128.318 412.989 122.955C412.989 117.591 414.068 112.886 416.227 108.841C418.386 104.773 421.489 101.614 425.534 99.3636C429.58 97.0909 434.443 95.9545 440.125 95.9545C445.807 95.9545 450.67 97.0909 454.716 99.3636C458.761 101.614 461.864 104.773 464.023 108.841C466.182 112.886 467.261 117.591 467.261 122.955C467.261 128.318 466.182 133.034 464.023 137.102C461.864 141.148 458.761 144.307 454.716 146.58C450.67 148.83 445.807 149.955 440.125 149.955ZM440.261 136.045C441.852 136.045 443.227 135.511 444.386 134.443C445.545 133.375 446.443 131.852 447.08 129.875C447.716 127.898 448.034 125.545 448.034 122.818C448.034 120.068 447.716 117.716 447.08 115.761C446.443 113.784 445.545 112.261 444.386 111.193C443.227 110.125 441.852 109.591 440.261 109.591C438.58 109.591 437.136 110.125 435.932 111.193C434.727 112.261 433.807 113.784 433.17 115.761C432.534 117.716 432.216 120.068 432.216 122.818C432.216 125.545 432.534 127.898 433.17 129.875C433.807 131.852 434.727 133.375 435.932 134.443C437.136 135.511 438.58 136.045 440.261 136.045ZM493.716 119.545V149H474.898V96.6364H492.761V106.591H493.307C494.443 103.273 496.443 100.67 499.307 98.7841C502.193 96.8977 505.557 95.9545 509.398 95.9545C513.102 95.9545 516.318 96.8068 519.045 98.5114C521.795 100.193 523.92 102.511 525.42 105.466C526.943 108.42 527.693 111.795 527.67 115.591V149H508.852V119.545C508.875 116.955 508.216 114.92 506.875 113.443C505.557 111.966 503.716 111.227 501.352 111.227C499.807 111.227 498.455 111.568 497.295 112.25C496.159 112.909 495.284 113.864 494.67 115.114C494.057 116.341 493.739 117.818 493.716 119.545ZM593.449 101C593.267 98.7273 592.415 96.9545 590.892 95.6818C589.392 94.4091 587.108 93.7727 584.04 93.7727C582.085 93.7727 580.483 94.0114 579.233 94.4886C578.006 94.9432 577.097 95.5682 576.506 96.3636C575.915 97.1591 575.608 98.0682 575.585 99.0909C575.54 99.9318 575.688 100.693 576.028 101.375C576.392 102.034 576.96 102.636 577.733 103.182C578.506 103.705 579.494 104.182 580.699 104.614C581.903 105.045 583.335 105.432 584.994 105.773L590.722 107C594.585 107.818 597.892 108.898 600.642 110.239C603.392 111.58 605.642 113.159 607.392 114.977C609.142 116.773 610.426 118.795 611.244 121.045C612.085 123.295 612.517 125.75 612.54 128.409C612.517 133 611.369 136.886 609.097 140.068C606.824 143.25 603.574 145.67 599.347 147.33C595.142 148.989 590.085 149.818 584.176 149.818C578.108 149.818 572.813 148.92 568.29 147.125C563.79 145.33 560.29 142.568 557.79 138.841C555.313 135.091 554.063 130.295 554.04 124.455H572.04C572.153 126.591 572.688 128.386 573.642 129.841C574.597 131.295 575.938 132.398 577.665 133.148C579.415 133.898 581.494 134.273 583.903 134.273C585.926 134.273 587.619 134.023 588.983 133.523C590.347 133.023 591.381 132.33 592.085 131.443C592.79 130.557 593.153 129.545 593.176 128.409C593.153 127.341 592.801 126.409 592.119 125.614C591.46 124.795 590.369 124.068 588.847 123.432C587.324 122.773 585.267 122.159 582.676 121.591L575.722 120.091C569.54 118.75 564.665 116.511 561.097 113.375C557.551 110.216 555.79 105.909 555.812 100.455C555.79 96.0227 556.972 92.1477 559.358 88.8295C561.767 85.4886 565.097 82.8864 569.347 81.0227C573.619 79.1591 578.517 78.2273 584.04 78.2273C589.676 78.2273 594.551 79.1705 598.665 81.0568C602.778 82.9432 605.949 85.6023 608.176 89.0341C610.426 92.4432 611.563 96.4318 611.585 101H593.449ZM634.614 149.818C631.273 149.818 628.318 149.273 625.75 148.182C623.205 147.068 621.205 145.386 619.75 143.136C618.295 140.886 617.568 138.023 617.568 134.545C617.568 131.682 618.057 129.239 619.034 127.216C620.011 125.17 621.375 123.5 623.125 122.205C624.875 120.909 626.909 119.92 629.227 119.239C631.568 118.557 634.091 118.114 636.795 117.909C639.727 117.682 642.08 117.409 643.852 117.091C645.648 116.75 646.943 116.284 647.739 115.693C648.534 115.08 648.932 114.273 648.932 113.273V113.136C648.932 111.773 648.409 110.727 647.364 110C646.318 109.273 644.977 108.909 643.341 108.909C641.545 108.909 640.08 109.307 638.943 110.102C637.83 110.875 637.159 112.068 636.932 113.682H619.614C619.841 110.5 620.852 107.568 622.648 104.886C624.466 102.182 627.114 100.023 630.591 98.4091C634.068 96.7727 638.409 95.9545 643.614 95.9545C647.364 95.9545 650.727 96.3977 653.705 97.2841C656.682 98.1477 659.216 99.3636 661.307 100.932C663.398 102.477 664.989 104.295 666.08 106.386C667.193 108.455 667.75 110.705 667.75 113.136V149H650.159V141.636H649.75C648.705 143.591 647.432 145.17 645.932 146.375C644.455 147.58 642.761 148.455 640.852 149C638.966 149.545 636.886 149.818 634.614 149.818ZM640.75 137.955C642.182 137.955 643.523 137.659 644.773 137.068C646.045 136.477 647.08 135.625 647.875 134.511C648.67 133.398 649.068 132.045 649.068 130.455V126.091C648.568 126.295 648.034 126.489 647.466 126.67C646.92 126.852 646.33 127.023 645.693 127.182C645.08 127.341 644.42 127.489 643.716 127.625C643.034 127.761 642.318 127.886 641.568 128C640.114 128.227 638.92 128.602 637.989 129.125C637.08 129.625 636.398 130.25 635.943 131C635.511 131.727 635.295 132.545 635.295 133.455C635.295 134.909 635.807 136.023 636.83 136.795C637.852 137.568 639.159 137.955 640.75 137.955ZM695.56 119.545V149H676.741V96.6364H694.605V106.591H695.151C696.287 103.273 698.287 100.67 701.151 98.7841C704.037 96.8977 707.401 95.9545 711.241 95.9545C714.946 95.9545 718.162 96.8068 720.889 98.5114C723.639 100.193 725.764 102.511 727.264 105.466C728.787 108.42 729.537 111.795 729.514 115.591V149H710.696V119.545C710.719 116.955 710.06 114.92 708.719 113.443C707.401 111.966 705.56 111.227 703.196 111.227C701.651 111.227 700.298 111.568 699.139 112.25C698.003 112.909 697.128 113.864 696.514 115.114C695.901 116.341 695.582 117.818 695.56 119.545ZM770.031 96.6364V110.273H735.531V96.6364H770.031ZM742.213 84.0909H761.031V132.159C761.031 132.886 761.156 133.5 761.406 134C761.656 134.477 762.043 134.841 762.565 135.091C763.088 135.318 763.759 135.432 764.577 135.432C765.145 135.432 765.804 135.364 766.554 135.227C767.327 135.091 767.895 134.977 768.259 134.886L770.986 148.114C770.145 148.364 768.94 148.67 767.372 149.034C765.827 149.398 763.986 149.636 761.849 149.75C757.531 149.977 753.906 149.534 750.974 148.42C748.043 147.284 745.838 145.5 744.361 143.068C742.884 140.636 742.168 137.591 742.213 133.932V84.0909ZM802.375 149.955C796.693 149.955 791.83 148.83 787.784 146.58C783.739 144.307 780.636 141.148 778.477 137.102C776.318 133.034 775.239 128.318 775.239 122.955C775.239 117.591 776.318 112.886 778.477 108.841C780.636 104.773 783.739 101.614 787.784 99.3636C791.83 97.0909 796.693 95.9545 802.375 95.9545C808.057 95.9545 812.92 97.0909 816.966 99.3636C821.011 101.614 824.114 104.773 826.273 108.841C828.432 112.886 829.511 117.591 829.511 122.955C829.511 128.318 828.432 133.034 826.273 137.102C824.114 141.148 821.011 144.307 816.966 146.58C812.92 148.83 808.057 149.955 802.375 149.955ZM802.511 136.045C804.102 136.045 805.477 135.511 806.636 134.443C807.795 133.375 808.693 131.852 809.33 129.875C809.966 127.898 810.284 125.545 810.284 122.818C810.284 120.068 809.966 117.716 809.33 115.761C808.693 113.784 807.795 112.261 806.636 111.193C805.477 110.125 804.102 109.591 802.511 109.591C800.83 109.591 799.386 110.125 798.182 111.193C796.977 112.261 796.057 113.784 795.42 115.761C794.784 117.716 794.466 120.068 794.466 122.818C794.466 125.545 794.784 127.898 795.42 129.875C796.057 131.852 796.977 133.375 798.182 134.443C799.386 135.511 800.83 136.045 802.511 136.045ZM885.011 113.682H867.693C867.602 112.614 867.227 111.693 866.568 110.92C865.909 110.148 865.057 109.557 864.011 109.148C862.989 108.716 861.852 108.5 860.602 108.5C858.989 108.5 857.602 108.795 856.443 109.386C855.284 109.977 854.716 110.818 854.739 111.909C854.716 112.682 855.045 113.398 855.727 114.057C856.432 114.716 857.784 115.227 859.784 115.591L870.42 117.5C875.784 118.477 879.773 120.125 882.386 122.443C885.023 124.739 886.352 127.818 886.375 131.682C886.352 135.409 885.239 138.648 883.034 141.398C880.852 144.125 877.864 146.239 874.068 147.739C870.295 149.216 865.989 149.955 861.148 149.955C853.148 149.955 846.886 148.318 842.364 145.045C837.864 141.773 835.352 137.455 834.83 132.091H853.511C853.761 133.75 854.58 135.034 855.966 135.943C857.375 136.83 859.148 137.273 861.284 137.273C863.011 137.273 864.432 136.977 865.545 136.386C866.682 135.795 867.261 134.955 867.284 133.864C867.261 132.864 866.761 132.068 865.784 131.477C864.83 130.886 863.33 130.409 861.284 130.045L852.011 128.409C846.67 127.477 842.67 125.705 840.011 123.091C837.352 120.477 836.034 117.114 836.057 113C836.034 109.364 836.989 106.284 838.92 103.761C840.875 101.216 843.659 99.2841 847.273 97.9659C850.909 96.625 855.216 95.9545 860.193 95.9545C867.761 95.9545 873.727 97.5227 878.091 100.659C882.477 103.795 884.784 108.136 885.011 113.682Z" fill="white"/>
<path fill-rule="evenodd" clip-rule="evenodd" d="M86 56H144.919C151.227 56 156.571 58.7933 160.597 63.1347C165.84 68.7874 168.849 77.0644 168.849 85.2169C168.849 94.5578 165.591 103.05 160.597 108.897C156.323 113.9 150.779 116.966 144.919 116.966H130.395L160.597 153H131.55L108.775 125.926L90.7798 147.641L86 153V114.823C86 103.526 95.4072 92.6185 105.144 92.6185L124.466 90.8343L124.416 90.6811L124.889 91.013C119.795 98.1049 119.106 101.025 121.577 104.429C122.793 94.6414 142.411 72.9187 152.472 77.2633L142.411 81.3214L150.669 80.2233L140.147 88.5782L143.459 99.5589L136.291 93.1137L126.105 104.429L130.38 91.013C124.638 98.0311 121.577 111.196 123.883 112.402C126.577 113.81 130.141 111.787 140.147 102.471L136.542 100.227L128.578 107.198L136.291 98.2699L148.238 105.574L145.723 97.124C154.798 85.7953 159.384 79.691 155.783 74.5897C152.472 71.4865 148.176 72.5327 139.77 77.2633L135.956 65.1367L130.38 82.0375L130.181 82.0759L130.383 81.9917L105.144 80.1526C96.3974 80.1526 86 69.0502 86 56ZM137.884 64.8503L139.77 64.0387L141.95 71.4387L139.77 72.2503L137.884 64.8503ZM140.86 75.4491L141.195 73.2052L142.998 74.2555L140.86 75.4491ZM141.237 103.331L140.818 105.909L142.998 104.429L141.237 103.331ZM150.669 83.231L143.459 89.9627L144.214 92.2066L150.669 83.231Z" fill="white"/>
</svg>
