<svg width="61" height="12" viewBox="0 0 61 12" fill="none" xmlns="http://www.w3.org/2000/svg">
<path d="M17 5L18.5 2L19.5 5L23 5.5L20 7.5L20.5 10L18.5 8L16 10L17 7.5L14 5.5L17 5Z" fill="#FD5D30" stroke="#FD5D30"/>
<path d="M5 5L6.5 2L7.5 5L11 5.5L8 7.5L8.5 10L6.5 8L4 10L5 7.5L2 5.5L5 5Z" fill="#FD5D30" stroke="#FD5D30"/>
<path d="M41 5L42.5 2L43.5 5L47 5.5L44 7.5L44.5 10L42.5 8L40 10L41 7.5L38 5.5L41 5Z" fill="#FD5D30" stroke="#FD5D30"/>
<path d="M53 5L54.5 2L55.5 5L59 5.5L56 7.5L56.5 10L54.5 8L52 10L53 7.5L50 5.5L53 5Z" fill="#FD5D30" stroke="#FD5D30"/>
<path d="M29 5L30.5 2L31.5 5L35 5.5L32 7.5L32.5 10L30.5 8L28 10L29 7.5L26 5.5L29 5Z" fill="#FD5D30" stroke="#FD5D30"/>
</svg>
