<svg width="17" height="17" viewBox="0 0 17 17" fill="none" xmlns="http://www.w3.org/2000/svg">
<path d="M4.13912 15.6871C-0.120043 10.1453 0.36266 4.63228 4.13912 2.45262C6.57157 1.04866 11.4184 0.42266 13.9855 2.26681C15.6233 3.44325 16.3835 5.66131 15.1739 6.87099C13.2397 8.80536 7.21981 7.20917 6.74219 8.19236C6.11519 9.4834 16.4404 12.3514 15.853 14.2005C15.4776 15.3825 10.6171 16.2296 8.97745 14.9438C6.09737 12.685 14.9337 5.23805 12.4011 3.42301C10.8435 2.30687 5.23552 3.49961 3.94105 5.87995C2.07051 9.31905 9.88825 13.9798 8.15691 15.5631C7.4736 16.1881 4.13912 15.6871 4.13912 15.6871Z" fill="white" stroke="white" stroke-miterlimit="10"/>
</svg>
