<svg width="423" height="182" viewBox="0 0 423 182" fill="none" xmlns="http://www.w3.org/2000/svg">
<path d="M134.117 132.481C109.945 101.029 112.684 69.7396 134.117 57.3691C147.923 49.4009 185.093 39.7017 196.595 55.3444C205.337 68.2269 211.778 77.4286 202.116 88.4708C191.139 99.4492 151.602 84.3647 148.891 89.9447C145.333 97.2719 203.932 113.549 200.599 124.043C198.468 130.752 170.883 135.56 161.577 128.262C145.231 115.443 195.382 73.1776 181.008 62.8765C172.167 56.5418 140.34 63.3112 132.993 76.8207C122.377 96.3392 166.746 122.791 156.92 131.777C153.042 135.324 134.117 132.481 134.117 132.481Z" fill="white" stroke="white" stroke-miterlimit="10"/>
<path d="M253.186 56.7236C257.086 69.8421 243.984 109.635 246.285 113.316C248.585 116.997 257.327 121.597 257.327 128.499C257.327 135.4 257.787 134.02 266.989 134.48C266.989 134.48 290.453 134.48 293.214 133.56C295.974 132.639 304.716 125.738 306.096 120.217C307.257 115.575 307.016 108.715 304.256 106.414C301.496 104.114 292.294 102.274 289.533 101.814C286.773 101.354 281.697 97.7837 278.951 100.893C276.692 103.453 276.38 107.389 278.951 109.635C280.364 110.869 283.673 109.143 283.552 111.015C283.47 112.283 286.108 116.076 281.252 113.316C276.396 110.555 267.449 106.414 266.989 99.0531C266.409 89.7662 269.749 79.2693 271.13 75.5886C272.51 71.9079 278.541 71.2053 283.552 71.9079C288.343 72.5797 292.062 73.9774 294.134 78.3491C295.75 81.7587 291.763 85.0757 294.134 88.011C296.505 90.9463 304.256 90.7715 306.096 88.011C307.016 84.7903 306.096 78.3491 306.096 78.3491C306.096 76.1407 306.59 65.714 302.876 59.0254C298.277 50.7438 249.287 43.605 253.186 56.7236Z" fill="#D9D9D9"/>
<path fill-rule="evenodd" clip-rule="evenodd" d="M190.154 133.1C193.374 131.259 214.733 125.229 196.595 114.236C189.824 110.132 168.99 101.353 168.99 101.353L174.051 93.532C173.869 94.5253 194.519 94.5129 199.356 92.6119C207.801 89.2925 209.477 78.349 208.557 73.2881C207.487 67.4034 199.329 56.7252 203.036 54.4245C216.379 46.1432 252.811 45.2233 251.345 65.0066C249.505 89.8523 239.343 114.446 247.205 118.377C257.327 123.438 257.327 133.1 249.505 133.1C240.303 132.18 232.482 137.701 231.562 127.119C230.508 114.996 224.2 116.383 222.82 118.377C221.746 122.978 222.36 132.363 216.839 133.1C211.318 133.836 193.221 133.866 190.154 133.1ZM230.181 65.0066C225.375 68.0454 220.52 96.2927 224.2 99.5133L231.562 96.2927C235.559 86.6793 233.862 71.908 230.181 65.0066Z" fill="#D9D9D9"/>
</svg>
